<svg xmlns="http://www.w3.org/2000/svg" xmlns:xlink="http://www.w3.org/1999/xlink" width="1280" zoomAndPan="magnify" viewBox="0 0 960 599.999999" height="800" preserveAspectRatio="xMidYMid meet" version="1.0"><path fill="#333333" d="M 536.898438 424.136719 L 661.925781 424.136719 L 706.324219 468.539062 C 710.972656 473.191406 717.414062 475.863281 723.984375 475.863281 C 737.757812 475.863281 748.964844 464.652344 748.964844 450.878906 L 748.964844 424.136719 C 766.082031 424.136719 780 410.21875 780 393.101562 L 780 31.035156 C 780 13.917969 766.082031 0 748.964844 0 L 355.863281 0 C 338.746094 0 324.828125 13.917969 324.828125 31.035156 L 324.828125 212.070312 C 324.828125 217.777344 329.460938 222.414062 335.171875 222.414062 C 340.882812 222.414062 345.515625 217.777344 345.515625 212.070312 L 345.515625 31.035156 C 345.515625 25.328125 350.15625 20.691406 355.863281 20.691406 L 748.964844 20.691406 C 754.671875 20.691406 759.308594 25.328125 759.308594 31.035156 L 759.308594 393.101562 C 759.308594 398.808594 754.671875 403.449219 748.964844 403.449219 L 738.621094 403.449219 C 732.910156 403.449219 728.277344 408.082031 728.277344 413.792969 L 728.277344 450.878906 C 728.277344 453.25 726.351562 455.171875 723.984375 455.171875 C 722.859375 455.171875 721.753906 454.710938 720.953125 453.910156 L 673.519531 406.480469 C 671.582031 404.539062 668.949219 403.449219 666.207031 403.449219 L 536.898438 403.449219 C 531.1875 403.449219 526.550781 408.082031 526.550781 413.792969 C 526.550781 419.503906 531.1875 424.136719 536.898438 424.136719 Z M 536.898438 424.136719 " fill-opacity="1" fill-rule="nonzero"/><path fill="#333333" d="M 290.761719 571.996094 C 282.265625 563.492188 270.492188 558.621094 258.464844 558.621094 L 190.34375 558.621094 C 184.632812 558.621094 180 563.253906 180 568.964844 C 180 574.675781 184.632812 579.308594 190.34375 579.308594 L 258.464844 579.308594 C 265.042969 579.308594 271.484375 581.980469 276.132812 586.625 C 284.632812 595.128906 296.40625 600 308.429688 600 L 448.964844 600 C 466.082031 600 480 586.082031 480 568.964844 L 480 558.621094 C 480 554.921875 479.316406 551.390625 478.121094 548.09375 C 493.691406 546.445312 505.863281 533.234375 505.863281 517.242188 L 505.863281 506.898438 C 505.863281 498.941406 502.832031 491.707031 497.890625 486.207031 C 502.824219 480.707031 505.863281 473.472656 505.863281 465.515625 L 505.863281 455.171875 C 505.863281 447.21875 502.832031 439.980469 497.890625 434.484375 C 502.824219 428.984375 505.863281 421.75 505.863281 413.792969 L 505.863281 403.449219 C 505.863281 386.332031 491.941406 372.414062 474.828125 372.414062 L 392.070312 372.414062 L 392.070312 337.707031 C 392.070312 318.308594 388.707031 299.261719 382.089844 281.125 L 378.027344 269.871094 C 375.097656 261.96875 369.9375 255.257812 363.035156 250.421875 C 356.105469 245.632812 348.046875 243.101562 339.722656 243.101562 C 317.25 243.101562 298.964844 261.386719 298.964844 283.863281 L 298.964844 307.449219 C 298.964844 331.367188 292.976562 355.097656 281.628906 376.101562 L 269.824219 398.054688 C 268.070312 401.328125 264.507812 403.449219 260.742188 403.449219 L 190.34375 403.449219 C 184.632812 403.449219 180 408.082031 180 413.792969 C 180 419.503906 184.632812 424.136719 190.34375 424.136719 L 260.742188 424.136719 C 272.207031 424.136719 282.683594 417.882812 288.0625 407.828125 L 299.84375 385.914062 C 312.808594 361.914062 319.65625 334.777344 319.65625 307.449219 L 319.65625 283.863281 C 319.65625 272.792969 328.660156 263.792969 339.722656 263.792969 C 343.824219 263.792969 347.820312 265.054688 351.21875 267.402344 C 354.601562 269.773438 357.164062 273.113281 358.597656 276.984375 L 362.644531 288.1875 C 368.441406 304.082031 371.378906 320.742188 371.378906 337.710938 L 371.378906 372.882812 C 356.726562 375.363281 345.515625 388.105469 345.515625 403.453125 L 345.515625 413.796875 C 345.515625 421.753906 348.546875 428.988281 353.488281 434.488281 C 348.554688 439.984375 345.515625 447.222656 345.515625 455.175781 L 345.515625 465.523438 C 345.515625 473.476562 348.546875 480.714844 353.488281 486.210938 C 348.554688 491.710938 345.515625 498.945312 345.515625 506.902344 L 345.515625 517.246094 C 345.515625 525.203125 348.546875 532.4375 353.488281 537.9375 C 348.554688 543.433594 345.515625 550.671875 345.515625 558.625 L 345.515625 568.96875 C 345.515625 572.601562 346.175781 576.078125 347.328125 579.316406 L 308.429688 579.316406 C 301.851562 579.308594 295.410156 576.640625 290.761719 571.996094 Z M 485.171875 517.242188 C 485.171875 522.945312 480.53125 527.585938 474.828125 527.585938 L 376.550781 527.585938 C 370.847656 527.585938 366.207031 522.945312 366.207031 517.242188 L 366.207031 506.898438 C 366.207031 501.191406 370.847656 496.550781 376.550781 496.550781 L 474.828125 496.550781 C 480.53125 496.550781 485.171875 501.191406 485.171875 506.898438 Z M 366.207031 465.515625 L 366.207031 455.171875 C 366.207031 449.46875 370.847656 444.828125 376.550781 444.828125 L 474.828125 444.828125 C 480.53125 444.828125 485.171875 449.46875 485.171875 455.171875 L 485.171875 465.515625 C 485.171875 471.222656 480.53125 475.863281 474.828125 475.863281 L 376.550781 475.863281 C 370.847656 475.863281 366.207031 471.222656 366.207031 465.515625 Z M 366.207031 403.449219 C 366.207031 397.742188 370.847656 393.101562 376.550781 393.101562 L 474.828125 393.101562 C 480.53125 393.101562 485.171875 397.742188 485.171875 403.449219 L 485.171875 413.792969 C 485.171875 419.5 480.53125 424.136719 474.828125 424.136719 L 376.550781 424.136719 C 370.847656 424.136719 366.207031 419.5 366.207031 413.792969 Z M 366.207031 568.964844 L 366.207031 558.621094 C 366.207031 552.914062 370.847656 548.277344 376.550781 548.277344 L 448.964844 548.277344 C 454.671875 548.277344 459.308594 552.914062 459.308594 558.621094 L 459.308594 568.964844 C 459.308594 574.671875 454.671875 579.308594 448.964844 579.308594 L 376.550781 579.308594 C 370.847656 579.308594 366.207031 574.671875 366.207031 568.964844 Z M 366.207031 568.964844 " fill-opacity="1" fill-rule="nonzero"/><path fill="#333333" d="M 464.484375 279.308594 C 464.484375 299.277344 480.722656 315.515625 500.691406 315.515625 C 517.058594 315.515625 530.90625 304.59375 535.371094 289.65625 L 579.800781 289.65625 C 584.265625 304.59375 598.117188 315.515625 614.484375 315.515625 C 634.449219 315.515625 650.691406 299.277344 650.691406 279.308594 C 650.691406 267.734375 645.207031 257.4375 636.730469 250.804688 L 662.390625 185.285156 C 665.515625 177.339844 664.5 168.378906 659.683594 161.3125 C 654.851562 154.226562 646.851562 150 638.277344 150 L 465.492188 150 L 458.707031 131 C 457.234375 126.882812 453.335938 124.136719 448.964844 124.136719 L 407.585938 124.136719 C 401.875 124.136719 397.242188 128.773438 397.242188 134.484375 C 397.242188 140.191406 401.875 144.828125 407.585938 144.828125 L 441.675781 144.828125 L 479.300781 250.160156 C 470.339844 256.757812 464.484375 267.351562 464.484375 279.308594 Z M 500.691406 294.828125 C 492.132812 294.828125 485.171875 287.867188 485.171875 279.308594 C 485.171875 270.753906 492.132812 263.792969 500.691406 263.792969 C 509.246094 263.792969 516.207031 270.753906 516.207031 279.308594 C 516.207031 287.867188 509.246094 294.828125 500.691406 294.828125 Z M 614.484375 294.828125 C 605.925781 294.828125 598.964844 287.867188 598.964844 279.308594 C 598.964844 270.753906 605.925781 263.792969 614.484375 263.792969 C 623.039062 263.792969 630 270.753906 630 279.308594 C 630 287.867188 623.039062 294.828125 614.484375 294.828125 Z M 472.882812 170.691406 L 638.277344 170.691406 C 640.675781 170.691406 642.003906 172.113281 642.585938 172.960938 C 643.160156 173.796875 643.984375 175.53125 643.121094 177.722656 L 617.460938 243.25 C 616.480469 243.175781 615.492188 243.101562 614.484375 243.101562 C 598.113281 243.101562 584.265625 254.027344 579.800781 268.964844 L 535.371094 268.964844 C 530.90625 254.027344 517.054688 243.101562 500.691406 243.101562 C 500.046875 243.101562 499.421875 243.164062 498.785156 243.203125 Z M 472.882812 170.691406 " fill-opacity="1" fill-rule="nonzero"/></svg>